Motion_mu01
version=1
nRows=13
nColumns=43
inDegrees=yes
endheader
time	pelvis_tilt	pelvis_list	pelvis_rotation	pelvis_tx	pelvis_ty	pelvis_tz	hip_flexion_r	hip_adduction_r	hip_rotation_r	knee_angle_r	ankle_angle_r	subtalar_angle_r	mtp_angle_r	hip_flexion_l	hip_adduction_l	hip_rotation_l	knee_angle_l	ankle_angle_l	subtalar_angle_l	mtp_angle_l	lumbar_extension	lumbar_bending	lumbar_rotation	neck_flexion	neck_lateral_bending	neck_rotation	arm_flex_r	arm_add_r	arm_rot_r	elbow_flex_r	pro_sup_r	wrist_flex_r	wrist_dev_r	hand_finger_flex_r	arm_flex_l	arm_add_l	arm_rot_l	elbow_flex_l	pro_sup_l	wrist_flex_l	wrist_dev_l	hand_finger_flex_l
      1.40250000	     -5.54582088	    -62.11786126	    -93.01692882	     -0.00200690	      1.31112118	      1.02923575	     72.55677865	     -7.21739543	     -2.91180628	    -96.34818676	     -0.66963220	    -18.22461673	     -8.61484020	     64.01579632	     -8.41302172	      6.67117524	   -108.65725608	     26.62317168	      7.87405852	    -21.27161811	    -28.40820678	      4.51496022	     -4.79200672	    -25.99851736	     -8.96312271	      3.85740255	   -124.84547897	   -166.01096956	   -184.69235720	     85.90036666	    164.35698555	     16.57498616	    -11.11866386	     71.74099803	   -129.75574326	    201.79521676	   -191.80095180	     93.67726649	    160.89162062	     12.12801061	      6.83709592	     90.00021046
      1.40500000	     -5.58348454	    -62.13700561	    -92.96124837	     -0.00205022	      1.31689208	      1.02593679	     72.10377943	     -7.17210421	     -2.85092915	    -96.34633941	     -0.76502938	    -18.20459844	     -8.58332197	     63.44751953	     -8.34798198	      6.68125042	   -108.50212116	     26.49593890	      7.94743116	    -21.30881481	    -28.43940958	      4.53515116	     -4.89456673	    -26.41927013	     -9.00672449	      3.86614644	   -125.82700493	   -165.85838734	   -184.63999050	     86.41258661	    164.27757174	     16.51246745	    -11.10392292	     71.73407266	   -130.79038823	    201.82974086	   -191.93535536	     94.15013276	    160.86537969	     12.04168590	      6.84172043	     90.00021046
      1.40750000	     -5.56936505	    -62.23336644	    -92.86317338	     -0.00211439	      1.32282159	      1.02269100	     71.57605648	     -7.15276608	     -2.79187788	    -96.38207958	     -0.89454667	    -18.17818862	     -8.54859009	     62.81275077	     -8.32579244	      6.68771643	   -108.40948786	     26.32663410	      8.05940900	    -21.35558091	    -28.53060405	      4.50701179	     -5.02573141	    -27.04661380	     -9.04219196	      3.85903466	   -126.79368883	   -165.74388675	   -184.61619150	     86.83056931	    164.17749916	     16.42488599	    -11.04579379	     71.71031552	   -131.85327863	    201.79588438	   -192.17506543	     94.68958688	    160.85262425	     11.90619311	      6.86161051	     90.00021046
      1.41000000	     -5.28096666	    -62.52925534	    -92.53884283	     -0.00191498	      1.32892631	      1.01936250	     70.88936466	     -7.23189339	     -2.58848844	    -96.49413147	     -1.15137425	    -18.21153911	     -8.01295522	     61.91110745	     -8.23524893	      6.54703527	   -108.32869249	     26.22991811	      8.62977023	    -21.67779237	    -28.79398973	      4.49458737	     -5.57970907	    -27.73000977	     -9.74377211	      3.82306349	   -127.35638764	   -166.04416220	   -184.12684878	     86.74496155	    163.67890313	     15.74806179	    -10.22739930	     71.28380259	   -133.26674445	    202.17007301	   -192.76027061	     95.28721135	    160.97909837	     10.69559984	      6.96755281	     90.00021046
      1.41250000	     -5.32090054	    -62.51631649	    -92.50081308	     -0.00200114	      1.33474224	      1.01628700	     70.45388223	     -7.16469951	     -2.54997642	    -96.52842624	     -1.27406392	    -18.16732897	     -7.98513555	     61.37266884	     -8.20663516	      6.58544677	   -108.21737119	     26.08193302	      8.66868529	    -21.71734088	    -28.79992852	      4.49879374	     -5.66782396	    -28.24837260	     -9.71915863	      3.85737193	   -128.32563624	   -165.86528764	   -184.07942582	     87.25131622	    163.58772760	     15.75521359	    -10.23270955	     71.28572953	   -134.29930389	    202.19929810	   -192.91080189	     95.78896671	    160.93376172	     10.63238088	      6.96084777	     90.00021046
      1.41500000	     -5.24034971	    -62.69129012	    -92.38663638	     -0.00199460	      1.34080739	      1.01314930	     69.84362660	     -7.16488932	     -2.46674206	    -96.62014873	     -1.52022148	    -18.08834504	     -7.88818517	     60.62382305	     -8.18706246	      6.52728916	   -108.16886060	     25.80241414	      8.83046118	    -21.82005214	    -28.96891933	      4.44806644	     -5.84771260	    -29.08743070	     -9.72140540	      3.85362952	   -129.15469805	   -165.84949229	   -184.03058229	     87.48589362	    163.37331159	     15.77164378	    -10.13100783	     71.20826659	   -135.39060827	    202.23175069	   -193.21207971	     96.22900022	    160.92292542	     10.41624861	      6.97987098	     90.00021046
      1.41750000	     -5.24091199	    -62.68503991	    -92.29730217	     -0.00210507	      1.34667677	      1.01020218	     69.39073428	     -7.12281754	     -2.42211020	    -96.68258247	     -1.64832612	    -18.04316261	     -7.86109057	     60.07864981	     -8.16144451	      6.55699248	   -108.07900167	     25.66498087	      8.89981452	    -21.86015515	    -29.00816273	      4.43357385	     -5.95418786	    -29.47936401	     -9.78601540	      3.86801437	   -130.11726170	   -165.69589906	   -184.05611980	     87.99876689	    163.23830690	     15.76286972	    -10.11147081	     71.18325543	   -136.41108104	    202.27127692	   -193.34954565	     96.77651255	    160.89117382	     10.31535315	      6.97332688	     90.00021046
      1.42000000	     -5.09572985	    -62.91408456	    -92.11332474	     -0.00208617	      1.35280532	      1.00712337	     68.71769925	     -7.15584183	     -2.33238342	    -96.80172457	     -1.91609224	    -17.93676500	     -7.76187687	     59.24457316	     -8.10902278	      6.47752846	   -108.02740155	     25.39299822	      9.13343870	    -21.97042649	    -29.26033055	      4.37322587	     -6.17470767	    -30.15644218	     -9.90218952	      3.81856175	   -130.90626033	   -165.71862380	   -184.02292905	     88.24481785	    162.96542523	     15.78082947	     -9.98061392	     71.02640726	   -137.49846146	    202.37485897	   -193.64313897	     97.22442205	    160.91068640	      9.99331074	      6.99899378	     90.00021046
      1.42250000	     -5.08639731	    -62.91847332	    -92.01194506	     -0.00218509	      1.35870102	      1.00427106	     68.23592813	     -7.14093399	     -2.31230461	    -96.87750994	     -2.05053417	    -17.87287889	     -7.72278838	     58.68979017	     -8.07771597	      6.50876622	   -107.98116102	     25.26082736	      9.21820221	    -22.01946543	    -29.32872205	      4.35628851	     -6.28253609	    -30.52020207	    -10.01883695	      3.83151491	   -131.85317788	   -165.60600113	   -184.11252786	     88.73272411	    162.83599919	     15.77702855	     -9.94152540	     70.96058908	   -138.53703575	    202.41246814	   -193.77814830	     97.80284592	    160.87872305	      9.83193565	      6.99046343	     90.00021046
      1.42500000	     -5.05690641	    -62.99036475	    -91.89199931	     -0.00226263	      1.36468116	      1.00142087	     67.68088948	     -7.14919769	     -2.31076752	    -96.97245660	     -2.22619565	    -17.77920788	     -7.68604268	     58.04755117	     -8.03480580	      6.52088846	   -107.93610805	     25.07287924	      9.33299030	    -22.07751790	    -29.46650722	      4.34383681	     -6.40881524	    -30.97276455	    -10.11483119	      3.82043853	   -132.76293166	   -165.53883829	   -184.19453278	     89.17096624	    162.70639381	     15.78020628	     -9.89715603	     70.87606415	   -139.56298406	    202.47212199	   -193.94399145	     98.30990499	    160.85900994	      9.63966799	      6.99192255	     90.00021046
      1.42750000	     -4.94369091	    -63.24971449	    -91.66411990	     -0.00237596	      1.37081439	      0.99842543	     66.93014684	     -7.20722107	     -2.27652671	    -97.11786149	     -2.47231547	    -17.59370317	     -7.56916267	     57.17366976	     -7.98601734	      6.51963615	   -107.84974109	     24.79015929	      9.56745092	    -22.20664561	    -29.79143227	      4.31343132	     -6.69493993	    -31.47199195	    -10.32924730	      3.74624846	   -133.55155518	   -165.56622724	   -184.10632368	     89.49125109	    162.51286385	     15.80999740	     -9.74665547	     70.59975313	   -140.59602535	    202.67717649	   -194.17557998	     98.71318317	    160.86660131	      9.13627199	      7.01052584	     90.00021046
      1.43000000	     -4.97317469	    -63.16229252	    -91.58746852	     -0.00254122	      1.37659531	      0.99579134	     66.51758759	     -7.17340576	     -2.31079565	    -97.20307489	     -2.57091712	    -17.53119106	     -7.55242640	     56.70974666	     -7.94911063	      6.56493321	   -107.79640347	     24.68685708	      9.60402875	    -22.23693351	    -29.80152834	      4.32017535	     -6.77906861	    -31.75117895	    -10.41080206	      3.76754119	   -134.51913250	   -165.42240650	   -184.17423366	     90.05205369	    162.42098432	     15.79565694	     -9.73151243	     70.55916941	   -141.59496291	    202.76661598	   -194.25826770	     99.20608330	    160.82911375	      9.02699325	      6.99878653	     90.00021046
      1.43250000	     -4.88502501	    -63.41298909	    -91.35982416	     -0.00263798	      1.38275786	      0.99293048	     65.74325326	     -7.29233740	     -2.36412436	    -97.33497351	     -2.83453390	    -17.29821472	     -7.45324472	     55.88123861	     -7.87579513	      6.63181229	   -107.77714367	     24.37834748	      9.76891704	    -22.36130224	    -30.12879645	      4.29262793	     -7.04629586	    -32.26779200	    -10.58407805	      3.71011895	   -135.34075964	   -165.43181365	   -184.14103829	     90.37310582	    162.22639975	     15.75518631	     -9.51090450	     70.26696040	   -142.63936824	    202.87760777	   -194.52036727	     99.69079457	    160.81077508	      8.49803057	      7.01961456	     90.00021046
